<svg width="24" height="27" viewBox="0 0 24 27" fill="none" xmlns="http://www.w3.org/2000/svg">
<path d="M-8.01086e-05 23.362V9.99056C-8.01086e-05 9.52008 0.10642 9.07437 0.31942 8.65342C0.53242 8.23247 0.82592 7.8858 1.19992 7.61342L10.1999 0.927706C10.7249 0.531515 11.3249 0.33342 11.9999 0.33342C12.6749 0.33342 13.2749 0.531515 13.7999 0.927706L22.7999 7.61342C23.1749 7.8858 23.4689 8.23247 23.6819 8.65342C23.8949 9.07437 24.0009 9.52008 23.9999 9.99056V23.362C23.9999 24.1791 23.7059 24.8789 23.1179 25.4613C22.5299 26.0437 21.8239 26.3344 20.9999 26.3334H16.4999C16.0749 26.3334 15.7189 26.1908 15.4319 25.9055C15.1449 25.6203 15.0009 25.2677 14.9999 24.8477V17.4191C14.9999 16.9982 14.8559 16.6456 14.5679 16.3613C14.2799 16.077 13.9239 15.9344 13.4999 15.9334H10.4999C10.0749 15.9334 9.71892 16.076 9.43192 16.3613C9.14492 16.6466 9.00092 16.9992 8.99992 17.4191V24.8477C8.99992 25.2687 8.85592 25.6218 8.56792 25.907C8.27992 26.1923 7.92392 26.3344 7.49992 26.3334H2.99992C2.17492 26.3334 1.46892 26.0427 0.881919 25.4613C0.29492 24.8799 0.000919891 24.1801 -8.01086e-05 23.362Z" fill="white"/>
</svg>
