<svg width="32" height="32" viewBox="0 0 32 32" fill="none" xmlns="http://www.w3.org/2000/svg">
<path d="M16 16C14.2125 16 12.6823 15.3635 11.4094 14.0906C10.1365 12.8177 9.5 11.2875 9.5 9.5C9.5 7.7125 10.1365 6.18229 11.4094 4.90938C12.6823 3.63646 14.2125 3 16 3C17.7875 3 19.3177 3.63646 20.5906 4.90938C21.8635 6.18229 22.5 7.7125 22.5 9.5C22.5 11.2875 21.8635 12.8177 20.5906 14.0906C19.3177 15.3635 17.7875 16 16 16ZM3 25.75V24.45C3 23.5292 3.23725 22.6831 3.71175 21.9117C4.18625 21.1404 4.81567 20.5511 5.6 20.1437C7.27917 19.3042 8.98542 18.6747 10.7187 18.2555C12.4521 17.8362 14.2125 17.6261 16 17.625C17.7875 17.6239 19.5479 17.8341 21.2812 18.2555C23.0146 18.6769 24.7208 19.3063 26.4 20.1437C27.1854 20.55 27.8154 21.1393 28.2899 21.9117C28.7644 22.6842 29.0011 23.5302 29 24.45V25.75C29 26.6437 28.682 27.4091 28.0461 28.0461C27.4102 28.6831 26.6448 29.0011 25.75 29H6.25C5.35625 29 4.59142 28.682 3.9555 28.0461C3.31958 27.4102 3.00108 26.6448 3 25.75Z" fill="#3B3D40"/>
</svg>
