<svg width="26" height="26" viewBox="0 0 26 26" fill="none" xmlns="http://www.w3.org/2000/svg">
<path d="M13 13C11.2125 13 9.68229 12.3635 8.40937 11.0906C7.13646 9.81771 6.5 8.2875 6.5 6.5C6.5 4.7125 7.13646 3.18229 8.40937 1.90938C9.68229 0.636459 11.2125 0 13 0C14.7875 0 16.3177 0.636459 17.5906 1.90938C18.8635 3.18229 19.5 4.7125 19.5 6.5C19.5 8.2875 18.8635 9.81771 17.5906 11.0906C16.3177 12.3635 14.7875 13 13 13ZM0 22.75V21.45C0 20.5292 0.23725 19.6831 0.71175 18.9117C1.18625 18.1404 1.81567 17.5511 2.6 17.1437C4.27917 16.3042 5.98542 15.6747 7.71875 15.2555C9.45208 14.8362 11.2125 14.6261 13 14.625C14.7875 14.6239 16.5479 14.8341 18.2812 15.2555C20.0146 15.6769 21.7208 16.3063 23.4 17.1437C24.1854 17.55 24.8154 18.1393 25.2899 18.9117C25.7644 19.6842 26.0011 20.5302 26 21.45V22.75C26 23.6437 25.682 24.4091 25.0461 25.0461C24.4102 25.6831 23.6448 26.0011 22.75 26H3.25C2.35625 26 1.59142 25.682 0.9555 25.0461C0.319583 24.4102 0.00108333 23.6448 0 22.75Z" fill="white"/>
</svg>
