<svg width="32" height="32" viewBox="0 0 32 32" fill="none" xmlns="http://www.w3.org/2000/svg">
<path d="M3.99992 26.3619V12.9905C3.99992 12.52 4.10642 12.0743 4.31942 11.6534C4.53242 11.2324 4.82592 10.8858 5.19992 10.6134L14.1999 3.92766C14.7249 3.53147 15.3249 3.33337 15.9999 3.33337C16.6749 3.33337 17.2749 3.53147 17.7999 3.92766L26.7999 10.6134C27.1749 10.8858 27.4689 11.2324 27.6819 11.6534C27.8949 12.0743 28.0009 12.52 27.9999 12.9905V26.3619C27.9999 27.1791 27.7059 27.8789 27.1179 28.4613C26.5299 29.0437 25.8239 29.3344 24.9999 29.3334H20.4999C20.0749 29.3334 19.7189 29.1907 19.4319 28.9055C19.1449 28.6202 19.0009 28.2676 18.9999 27.8477V20.4191C18.9999 19.9981 18.8559 19.6455 18.5679 19.3613C18.2799 19.077 17.9239 18.9344 17.4999 18.9334H14.4999C14.0749 18.9334 13.7189 19.076 13.4319 19.3613C13.1449 19.6465 13.0009 19.9991 12.9999 20.4191V27.8477C12.9999 28.2686 12.8559 28.6217 12.5679 28.907C12.2799 29.1922 11.9239 29.3344 11.4999 29.3334H6.99992C6.17492 29.3334 5.46892 29.0427 4.88192 28.4613C4.29492 27.8798 4.00092 27.1801 3.99992 26.3619Z" fill="#3B3D40"/>
</svg>
