<svg width="242" height="242" viewBox="0 0 242 242" fill="none" xmlns="http://www.w3.org/2000/svg">
<circle cx="121" cy="121" r="120" fill="url(#paint0_linear_17_597)" stroke="#323537" stroke-width="1.5"/>
<path d="M98.5001 11.5002C94.7501 4.75025 77.1251 9.27424 77.1251 9.27424C49.0756 20.298 26.1822 41.5795 13.0636 68.5002C13.0636 68.5002 9.70288 87.0868 9.24994 90.6253C7.18589 106.75 14.875 98.8753 18.6249 112C23.2653 128.242 23.4999 125.125 26.5001 131.875C30.206 140.213 23.8751 144.625 23.8751 154.375C23.8751 169.121 29.875 167.5 41.125 178.75C48.1331 185.758 48.2534 193.018 50.125 202.75C52 212.5 59.2588 222.389 69.25 221.125C78.7817 219.92 79.8696 212.373 85 204.25C89.5 197.125 103 204.25 103.75 195.625C105.225 178.665 114.25 173.875 111.25 163.375C106.488 146.707 71.8751 164.5 73.7501 153.25C76.8109 134.885 65.1225 135.646 57.6251 128.5C33.6251 105.625 38.5001 127 29.1251 125.5C18.4496 123.792 34.7501 104.5 23.5001 100C9.15699 94.263 19.3751 73.7503 24.6251 72.6253C29.8751 71.5003 29.234 76.3519 34.3751 75.2503C44.8751 73.0003 50.6351 64.1503 59.8751 58.3753C74.8751 49.0003 94.479 45.197 88.0001 31.3753C82.3751 19.3753 55.0001 49.0003 62.5001 28.7503C69.0899 10.9577 88.3751 24.2503 95.1251 21.6253C99.7512 19.8262 101.208 16.3753 98.5001 11.5002Z" fill="#72CD77" stroke="#323537" stroke-width="1.5"/>
<path d="M241 121C241 73.405 213.291 32.2817 173.125 12.8816C173.125 12.8816 163.375 10.3751 157 14.8751C153.411 17.4086 152.946 23.3 155.5 26.875C161.125 34.75 173.313 29.5784 173.125 37.375C172.989 42.9997 165.953 36.3362 163 41.125C161.349 43.8014 168.25 51.2502 162.25 54.25C155.025 57.8624 155.283 63.3299 159.625 65.875C170.5 72.25 169.398 54.2263 179.125 52.75C187.375 51.4979 187.882 55.9262 196 58.75C204.625 61.75 209.875 59.5 216.25 62.5C221.031 64.75 224.7 72.423 220.375 77.5001C211.75 87.6251 196.079 65.8389 181 68.5C168.25 70.75 163 74.875 158.125 88.7501C155.885 95.1251 151.443 99.5868 151.75 104.5C152.125 110.5 153.364 110.225 155.125 114.25C157.422 119.5 156.25 121.75 156.625 125.5C157.741 136.664 166.781 143.875 178 143.875C190 143.875 196.75 134.125 200.875 138.625C205.873 144.077 199 147.625 200.125 156.25C200.83 161.652 207.625 165.052 207.625 170.5C207.625 176.5 204.625 177.25 203.125 181.375C199.261 192 203.65 208 203.65 208C226.657 186.137 241 155.243 241 121Z" fill="#72CD77" stroke="#323537" stroke-width="1.5"/>
<path d="M103.75 15.2501C103.757 11.7232 100.811 9.01584 103 6.25011C105.642 2.91183 109.653 6.45589 113.875 7.00011C119.515 7.72715 125.505 4.95261 128.125 10.0001C131.202 15.9281 123.049 19.6024 117.625 23.5001C112.321 27.3116 106.304 33.9256 101.875 29.1251C98.1675 25.1063 103.739 20.7179 103.75 15.2501Z" fill="#72CD77" stroke="#323537" stroke-width="1.5"/>
<path d="M125.555 211.848C123.775 203.988 165.742 194.22 170.18 201.641C173.935 207.92 167.891 219.138 150.728 222.783C143.228 224.376 126.684 216.833 125.555 211.848Z" fill="#72CD77" stroke="#323537" stroke-width="1.5"/>
<defs>
<linearGradient id="paint0_linear_17_597" x1="121" y1="1" x2="121" y2="241" gradientUnits="userSpaceOnUse">
<stop stop-color="#90D6FA"/>
<stop offset="1" stop-color="#B0D0FF"/>
</linearGradient>
</defs>
</svg>
