<svg width="324" height="264" viewBox="0 0 324 264" fill="none" xmlns="http://www.w3.org/2000/svg">
<g filter="url(#filter0_d_69_902)">
<g clip-path="url(#clip0_69_902)">
<rect x="10" y="10" width="304" height="244" rx="30" fill="white"/>
<path d="M138.609 74.1562C136.617 74.1484 135.109 72.5547 135.109 69.7656C135.109 66.9375 136.656 65.4062 138.625 65.4062C140.117 65.4062 140.742 66.3047 141.047 66.9062H141.125V62.6875H143.109V74H141.156V72.6562H141.047C140.727 73.2812 140.078 74.1484 138.609 74.1562ZM137.141 69.75C137.141 71.3516 137.844 72.5156 139.156 72.5156C140.445 72.5156 141.172 71.4062 141.172 69.75C141.172 68.1016 140.453 67.0391 139.156 67.0312C137.828 67.0391 137.141 68.1719 137.141 69.75ZM145.125 74V62.6875H147.125V68.9219H147.266L150.312 65.5156H152.641L149.352 69.1719L152.844 74H150.469L147.859 70.3594L147.125 71.1406V74H145.125ZM156.625 74.1562C154.633 74.1484 153.125 72.5547 153.125 69.7656C153.125 66.9375 154.672 65.4062 156.641 65.4062C158.133 65.4062 158.758 66.3047 159.062 66.9062H159.141V62.6875H161.125V74H159.172V72.6562H159.062C158.742 73.2812 158.094 74.1484 156.625 74.1562ZM155.156 69.75C155.156 71.3516 155.859 72.5156 157.172 72.5156C158.461 72.5156 159.188 71.4062 159.188 69.75C159.188 68.1016 158.469 67.0391 157.172 67.0312C155.844 67.0391 155.156 68.1719 155.156 69.75ZM163.141 74V62.6875H165.141V68.9219H165.281L168.328 65.5156H170.656L167.367 69.1719L170.859 74H168.484L165.875 70.3594L165.141 71.1406V74H163.141ZM174.641 74.1562C172.648 74.1484 171.141 72.5547 171.141 69.7656C171.141 66.9375 172.688 65.4062 174.656 65.4062C176.148 65.4062 176.773 66.3047 177.078 66.9062H177.156V62.6875H179.141V74H177.188V72.6562H177.078C176.758 73.2812 176.109 74.1484 174.641 74.1562ZM173.172 69.75C173.172 71.3516 173.875 72.5156 175.188 72.5156C176.477 72.5156 177.203 71.4062 177.203 69.75C177.203 68.1016 176.484 67.0391 175.188 67.0312C173.859 67.0391 173.172 68.1719 173.172 69.75ZM181.156 74V62.6875H183.156V68.9219H183.297L186.344 65.5156H188.672L185.383 69.1719L188.875 74H186.5L183.891 70.3594L183.156 71.1406V74H181.156Z" fill="white"/>
<path d="M79.1055 120.309L80.7461 114.84H82.6016L81.5859 120.309H79.1055ZM83.2266 120.309L84.8672 114.84H86.7227L85.707 120.309H83.2266ZM102.309 113.082V119.977H104.926V121.793H102.309V130.699H100.141V113.082H102.309ZM88.3828 125.875C92.6797 123.727 95.0039 120.738 95.4336 116.715H89.3398V114.918H97.6406C97.6309 120.104 95.4824 124.664 89.6133 127.555L88.3828 125.875ZM119.848 113.082V120.133H122.289V121.93H119.848V130.738H117.66V113.082H119.848ZM105.512 125.68C107.992 123.043 108.812 120.24 108.988 116.715H106.215V114.938H111.059C111.049 119.566 110.395 123.463 107.211 126.91L105.512 125.68ZM110.512 126.852C113.031 123.844 113.744 120.543 113.881 116.715H111.645V114.938H115.941C115.932 119.684 115.434 124.215 112.25 128.043L110.512 126.852ZM139.164 121.812V123.551H132.348V126.793H130.141V123.551H123.031V121.812H139.164ZM124.75 117.086C124.74 114.869 127.279 113.473 131.078 113.473C134.896 113.473 137.406 114.869 137.406 117.086C137.406 119.312 134.896 120.689 131.078 120.68C127.279 120.689 124.74 119.312 124.75 117.086ZM125.004 130.387V125.152H127.191V128.609H137.387V130.387H125.004ZM127.094 117.086C127.074 118.258 128.656 118.941 131.078 118.941C133.52 118.941 135.092 118.258 135.082 117.086C135.092 115.875 133.52 115.191 131.078 115.191C128.656 115.191 127.074 115.875 127.094 117.086ZM159.867 113.082V130.738H157.699V121.754H153.969V119.977H157.699V113.082H159.867ZM144.965 125.855C149.535 123.609 151.498 120.631 151.859 116.676H145.785V114.957H154.047C154.027 120.172 152.182 124.557 146.098 127.555L144.965 125.855ZM177.074 113.082V130.758H174.926V113.082H177.074ZM163.324 116.383V114.625H171.645V121.246H165.57V124.801C168.354 124.781 170.746 124.635 173.5 124.176L173.695 125.953C170.697 126.471 168.061 126.588 164.887 126.578H163.344V119.527H169.438V116.383H163.324ZM193.949 118.082V119.801H181.723V113.727H183.871V118.082H193.949ZM179.633 123.57V121.852H195.766V123.57H179.633ZM181.566 130.328V125.133H183.734V128.57H194.066V130.328H181.566ZM210.824 114.156C210.824 118.736 207.826 121.939 202.641 123.375L201.801 121.676C205.756 120.592 208.09 118.541 208.5 115.914H202.758V114.156H210.824ZM204.887 130.523V123.863H216.508V125.621H207.016V128.766H216.84V130.523H204.887ZM210.902 119.293V117.496H214.301V113.102H216.469V123.023H214.301V119.293H210.902ZM233.715 113.082V130.738H231.527V113.082H233.715ZM219.086 125.875C223.715 123.678 225.844 120.689 226.234 116.676H219.984V114.957H228.441C228.441 120.211 226.4 124.674 220.219 127.613L219.086 125.875ZM244.457 114.879L242.816 120.348H240.961L241.977 114.879H244.457ZM236.84 120.348L237.855 114.879H240.336L238.695 120.348H236.84Z" fill="white"/>
<path d="M281.557 -8.96749C288.741 -10.8631 296.626 -9.59018 302.931 -4.8118C311.435 1.63295 314.574 12.5676 311.637 22.3842C315.145 23.0984 318.541 24.5848 321.572 26.8821C332.576 35.2217 334.601 51.0813 326.095 62.3054C317.588 73.5293 301.772 75.8669 290.768 67.5273C288.781 66.0219 287.09 64.2701 285.698 62.3462C277.581 65.976 267.884 65.2409 260.408 59.575C251.243 52.6293 248.308 40.4683 252.496 30.1126C250.712 29.3347 248.99 28.337 247.37 27.1094C236.366 18.7698 234.207 3.08845 242.546 -7.91552C250.886 -18.9191 266.566 -21.0791 277.57 -12.7399C279.064 -11.6081 280.393 -10.3397 281.557 -8.96749Z" fill="#44C14B"/>
<path d="M41.9522 211.891C48.9167 209.303 56.8878 209.798 63.6297 213.936C69.4501 217.51 73.2624 223.129 74.7388 229.349C76.8904 229.95 78.9922 230.855 80.9866 232.079C92.7535 239.303 96.3201 254.888 88.9522 266.891C82.5292 277.353 69.9178 281.638 58.9932 277.78C50.916 286.341 37.8446 288.458 27.6067 282.173C17.8069 276.157 13.6965 264.342 16.852 253.626C15.0004 253.027 13.189 252.202 11.457 251.139C-0.309851 243.915 -3.99283 228.52 3.23056 216.754C10.454 204.987 25.8481 201.304 37.6149 208.527C39.2121 209.507 40.6599 210.639 41.9522 211.891Z" fill="#44C14B"/>
</g>
</g>
<defs>
<filter id="filter0_d_69_902" x="0" y="0" width="324" height="264" filterUnits="userSpaceOnUse" color-interpolation-filters="sRGB">
<feFlood flood-opacity="0" result="BackgroundImageFix"/>
<feColorMatrix in="SourceAlpha" type="matrix" values="0 0 0 0 0 0 0 0 0 0 0 0 0 0 0 0 0 0 127 0" result="hardAlpha"/>
<feOffset/>
<feGaussianBlur stdDeviation="5"/>
<feComposite in2="hardAlpha" operator="out"/>
<feColorMatrix type="matrix" values="0 0 0 0 0.819608 0 0 0 0 0.839216 0 0 0 0 0.862745 0 0 0 0.3 0"/>
<feBlend mode="normal" in2="BackgroundImageFix" result="effect1_dropShadow_69_902"/>
<feBlend mode="normal" in="SourceGraphic" in2="effect1_dropShadow_69_902" result="shape"/>
</filter>
<clipPath id="clip0_69_902">
<rect x="10" y="10" width="304" height="244" rx="30" fill="white"/>
</clipPath>
</defs>
</svg>
