<svg width="32" height="32" viewBox="0 0 32 32" fill="none" xmlns="http://www.w3.org/2000/svg">
<path d="M6.58594 6.58594C7.31814 5.85373 8.47715 5.80761 9.2627 6.44824L9.41406 6.58594L16 13.1719L22.5859 6.58594L22.7373 6.44824C23.5228 5.8075 24.6818 5.85383 25.4141 6.58594C26.1463 7.3182 26.1926 8.47715 25.5518 9.2627L25.4141 9.41406L18.8281 16L25.4141 22.5859L25.5518 22.7373C26.1926 23.5229 26.1463 24.6818 25.4141 25.4141C24.6818 26.1462 23.5228 26.1925 22.7373 25.5518L22.5859 25.4141L16 18.8281L9.41406 25.4141L9.2627 25.5518C8.47715 26.1924 7.31816 26.1463 6.58594 25.4141C5.85386 24.6818 5.80758 23.5228 6.44824 22.7373L6.58594 22.5859L13.1719 16L6.58594 9.41406L6.44824 9.2627C5.80762 8.47719 5.85383 7.31816 6.58594 6.58594Z" fill="#F56868"/>
</svg>
