<svg width="24" height="24" viewBox="0 0 24 24" fill="none" xmlns="http://www.w3.org/2000/svg">
<path d="M15.6856 7.35088V21.9152C15.6856 22.4201 15.6856 22.6732 15.5234 22.7592C15.3613 22.8452 15.1512 22.7064 14.731 22.4263L12.3403 20.8328C12.1757 20.7223 12.0934 20.6682 12 20.6682C11.9066 20.6682 11.8243 20.7223 11.6597 20.8328L8.6547 22.8354C8.49007 22.9459 8.40776 23 8.31439 23C8.22102 23 8.13871 22.9459 7.97409 22.8354L4.96909 20.8328C4.80446 20.7223 4.72215 20.6682 4.62878 20.6682C4.53541 20.6682 4.4531 20.7223 4.28848 20.8328L1.89775 22.4263C1.47759 22.7064 1.26751 22.8464 1.10534 22.7592C0.943172 22.6732 0.943172 22.4201 0.943172 21.9152V5.86312C0.943172 3.5461 0.943172 2.38882 1.66309 1.6689C2.38302 0.948975 3.5403 0.948975 5.85732 0.948975H19.3712L18.9683 1.21802C17.3613 2.28931 16.5579 2.82495 16.1217 3.63947C15.6856 4.45399 15.6856 5.42085 15.6856 7.35088Z" fill="#DEE2E6"/>
<path d="M15.6856 4.63458C15.6856 3.6571 16.0739 2.71965 16.7651 2.02846C17.4563 1.33728 18.3937 0.948975 19.3712 0.948975C20.3487 0.948975 21.2862 1.33728 21.9773 2.02846C22.6685 2.71965 23.0568 3.6571 23.0568 4.63458V7.09166C23.0568 7.41749 22.9274 7.72997 22.697 7.96036C22.4666 8.19076 22.1541 8.32019 21.8283 8.32019H16.2999C16.137 8.32019 15.9807 8.25548 15.8655 8.14028C15.7503 8.02508 15.6856 7.86884 15.6856 7.70593V4.63458Z" fill="#3B3D40"/>
<path d="M4.01451 8.93457H12.6143M4.01451 12.6202H8.92866M4.01451 16.3058H11.3857" stroke="#3B3D40" stroke-linecap="round"/>
</svg>
