<svg width="375" height="48" viewBox="0 0 375 48" fill="none" xmlns="http://www.w3.org/2000/svg">
<g clip-path="url(#clip0_46_3514)">
<rect width="375" height="48" fill="url(#paint0_linear_46_3514)"/>
<path d="M352.852 26.9056C357.638 24.5905 363.26 26.0123 366.424 30.0177C366.641 29.8942 366.863 29.7743 367.091 29.6639C372.624 26.9872 379.279 29.3023 381.956 34.8352C384.633 40.3684 382.317 47.0245 376.784 49.7012C373.575 51.2538 369.989 51.1239 367.02 49.6635C367.716 54.6026 365.055 59.7275 360.127 62.1117C354.082 65.0361 346.918 62.7291 344.127 56.9587C341.665 51.8698 343.426 45.788 348.022 42.4163C347.903 42.206 347.788 41.9918 347.681 41.7711C345.004 36.238 347.319 29.5824 352.852 26.9056Z" fill="url(#paint1_linear_46_3514)"/>
<path d="M-1.14772 -10.0944C3.63779 -12.4095 9.25994 -10.9877 12.4244 -6.9823C12.6415 -7.10585 12.8626 -7.22573 13.0907 -7.33611C18.6238 -10.0128 25.2794 -7.69774 27.9562 -2.16476C30.633 3.3684 28.3172 10.0245 22.784 12.7012C19.5746 14.2538 15.9888 14.1239 13.0197 12.6635C13.7165 17.6026 11.0549 22.7275 6.12672 25.1117C0.0817623 28.0361 -7.08174 25.7291 -9.87334 19.9587C-12.3352 14.8698 -10.5739 8.78799 -5.97765 5.41634C-6.09676 5.20599 -6.2123 4.99182 -6.31907 4.77113C-8.99577 -0.761959 -6.68073 -7.41759 -1.14772 -10.0944Z" fill="url(#paint2_linear_46_3514)"/>
</g>
<defs>
<linearGradient id="paint0_linear_46_3514" x1="-1.05288e-08" y1="24" x2="374.644" y2="35.541" gradientUnits="userSpaceOnUse">
<stop stop-color="#4AE07C"/>
<stop offset="0.5" stop-color="#2DE5A1"/>
<stop offset="1" stop-color="#4AE07C"/>
</linearGradient>
<linearGradient id="paint1_linear_46_3514" x1="353.664" y1="26.5129" x2="368.845" y2="57.8941" gradientUnits="userSpaceOnUse">
<stop stop-color="#FAFFCE"/>
<stop offset="1" stop-color="#FFE876"/>
</linearGradient>
<linearGradient id="paint2_linear_46_3514" x1="-0.335875" y1="-10.4871" x2="14.8452" y2="20.8941" gradientUnits="userSpaceOnUse">
<stop stop-color="#FFE876"/>
<stop offset="1" stop-color="#FAFFCE"/>
</linearGradient>
<clipPath id="clip0_46_3514">
<rect width="375" height="48" fill="white"/>
</clipPath>
</defs>
</svg>
