<svg width="242" height="240" viewBox="0 0 242 240" fill="none" xmlns="http://www.w3.org/2000/svg">
<circle cx="119.763" cy="119.763" r="118.763" fill="url(#paint0_linear_46_3351)" stroke="#323537" stroke-width="1.5"/>
<path d="M97.495 11.3917C93.7836 4.71128 76.3403 9.18863 76.3403 9.18863C48.5799 20.0987 25.9226 41.1609 12.9393 67.804C12.9393 67.804 9.61318 86.199 9.16491 89.701C7.12213 105.66 14.732 97.8659 18.4432 110.856C22.1545 123.845 37.4634 104.657 23.2682 98.9793C9.07292 93.3012 19.1857 72.9999 24.3816 71.8865C29.5774 70.7731 28.9429 75.5748 34.031 74.4845C44.4228 72.2577 50.1234 63.4989 59.2682 57.7834C74.1135 48.5051 93.5154 44.7411 87.1032 31.0618C81.5362 19.1855 54.4434 48.5051 61.8661 28.4639C68.388 10.8548 87.4743 24.0102 94.1547 21.4123C98.7332 19.6318 100.175 16.2164 97.495 11.3917Z" fill="#699869" stroke="#323537" stroke-width="1.5"/>
<path d="M102.691 15.1032C102.698 11.6127 99.7824 8.93319 101.948 6.19598C104.563 2.89211 108.533 6.39963 112.711 6.93825C118.293 7.65778 124.221 4.91185 126.814 9.90732C129.86 15.7742 121.79 19.4106 116.423 23.2681C111.174 27.0404 105.218 33.5861 100.835 28.8352C97.1657 24.8578 102.68 20.5146 102.691 15.1032Z" fill="#699869" stroke="#323537" stroke-width="1.5"/>
<path d="M124.271 209.674C122.51 201.895 164.043 192.228 168.436 199.573C172.152 205.787 166.171 216.889 149.184 220.497C141.762 222.073 125.388 214.608 124.271 209.674Z" fill="#699869" stroke="#323537" stroke-width="1.5"/>
<path d="M25.1924 152.753L27.7583 135.525V119.03L34.7228 123.062C37.4108 120.863 43.3734 116.537 45.7194 116.831C48.0653 117.124 56.4716 123.795 60.3814 127.094L74.3104 140.29L72.4777 154.219L104.368 152.753L110.966 162.65L104.368 181.71V196.006L89.3391 198.205L82.3746 204.437L71.0115 218.366L55.2497 210.668L47.9187 185.009L34.7228 171.447L25.1924 152.753Z" fill="#7AA974" stroke="#191D1F" stroke-width="2"/>
<path d="M213.967 185.009L202.604 201.87L197.105 192.34L200.404 179.877L206.269 173.279L195.273 155.318L200.404 139.19L195.273 135.524L175.845 143.955L156.418 131.492L153.486 116.83L151.286 104.734L156.418 86.4064L163.016 76.143L182.077 69.545L193.073 72.4774L209.202 81.6412L215.8 72.4774L213.967 65.1464H202.604L180.244 52.3171L168.881 65.1464L158.251 67.7123L156.418 56.7157L160.084 50.4843V44.6195L172.546 39.4878L166.682 33.9895L151.286 24.4591L156.418 15.6619H172.546L185.376 24.4591H193.073L200.404 29.9574L217.247 48.9999L221.298 56.7157L232.294 72.4774L235.593 83.474L241 112.34V131.492L237.426 143.955L232.294 159.717L226.65 175.68L213.967 185.009Z" fill="#7AA974" stroke="#191D1F" stroke-width="2"/>
<defs>
<linearGradient id="paint0_linear_46_3351" x1="119.763" y1="1" x2="119.763" y2="238.526" gradientUnits="userSpaceOnUse">
<stop stop-color="#90D3EC"/>
<stop offset="1" stop-color="#D8B584"/>
</linearGradient>
</defs>
</svg>
