<svg width="375" height="48" viewBox="0 0 375 48" fill="none" xmlns="http://www.w3.org/2000/svg">
<rect width="375" height="48" fill="url(#paint0_linear_46_3538)"/>
<path d="M352.647 20.3103L352 32.5L361.912 34.1034L372.5 29.7931V19.0172L359.706 16L352.647 20.3103Z" fill="url(#paint1_linear_46_3538)"/>
<path d="M6.96053 31.7353L13.2854 42.1757L22.3811 37.9233L28.7079 28.4017L22.6438 19.4941L10.3699 24.1999L6.96053 31.7353Z" fill="url(#paint2_linear_46_3538)"/>
<path d="M338.474 34.3107L335.367 40.2943L339.84 43.305L345.997 43.4934L348.465 38.0765L342.908 33.714L338.474 34.3107Z" fill="url(#paint3_linear_46_3538)"/>
<path d="M25.7457 8.15169L26.5446 14.8465L31.9362 14.8181L37.1321 11.5087L36.1233 5.64244L29.0751 5.16329L25.7457 8.15169Z" fill="url(#paint4_linear_46_3538)"/>
<defs>
<linearGradient id="paint0_linear_46_3538" x1="-1.05288e-08" y1="24" x2="374.644" y2="35.541" gradientUnits="userSpaceOnUse">
<stop stop-color="#989898"/>
<stop offset="0.5" stop-color="#C2C2C2"/>
<stop offset="1" stop-color="#989898"/>
</linearGradient>
<linearGradient id="paint1_linear_46_3538" x1="363.235" y1="16" x2="363.235" y2="41" gradientUnits="userSpaceOnUse">
<stop stop-color="white"/>
<stop offset="1" stop-color="#CBCBCB"/>
</linearGradient>
<linearGradient id="paint2_linear_46_3538" x1="13.2874" y1="22.2137" x2="27.3562" y2="42.8794" gradientUnits="userSpaceOnUse">
<stop stop-color="white"/>
<stop offset="1" stop-color="#CBCBCB"/>
</linearGradient>
<linearGradient id="paint3_linear_46_3538" x1="344.632" y1="34.499" x2="338.907" y2="47.0662" gradientUnits="userSpaceOnUse">
<stop stop-color="white"/>
<stop offset="1" stop-color="#CBCBCB"/>
</linearGradient>
<linearGradient id="paint4_linear_46_3538" x1="30.9415" y1="4.84235" x2="33.2817" y2="18.4521" gradientUnits="userSpaceOnUse">
<stop stop-color="white"/>
<stop offset="1" stop-color="#CBCBCB"/>
</linearGradient>
</defs>
</svg>
