<svg width="242" height="243" viewBox="0 0 242 243" fill="none" xmlns="http://www.w3.org/2000/svg">
<path d="M78.6667 13.8519L92.7407 5.33333L108.296 2L127.556 5.33333H143.111L160.889 6.81481L175.333 16.8148L188.296 25.7037H196.074L203.481 31.2593L217.185 52L224.593 58.2963L235.704 74.2222L239.037 85.3333V112V133.852L240.889 146.444L235.704 162.37L229.037 176.074L217.185 187.926L205.704 204.963L193.852 220.889L180.519 227.556L162.741 230.519L149.037 236.815L129.778 242H108.296L101.259 236.815L82.7407 230.519L65.7037 227.556L52.7407 220.889L32 202V195.704L24.5926 187.926L17.9259 184.593L9.03704 162.37V152.741L4.22222 135.333L2 124.593L4.22222 105.704L9.03704 97.1852L11.6296 85.3333V76.8148L17.9259 61.6296L29.037 54.5926L36.0741 46.8148L47.1852 31.2593L59.7778 20.8889L78.6667 13.8519Z" fill="url(#paint0_linear_17_1630)" stroke="#191D1F" stroke-width="2"/>
<path d="M103.852 16.0742L106.074 7.55566L110.148 9.40752H126.444L131.259 16.0742C127.556 18.9137 120.074 24.8149 119.778 25.7038C119.481 26.5927 109.778 30.7655 104.963 32.7408L101.63 29.4075L104.963 20.5186L103.852 16.0742Z" fill="#B8B8B8" stroke="black" stroke-width="2"/>
<path d="M151.259 200.148L127.185 209.407L129.778 215.333L145.333 220.519H159.037L171.259 213.482L172.741 200.148H151.259Z" fill="#B8B8B8" stroke="black" stroke-width="2"/>
<path d="M78.6667 13.8518L92.7407 5.33325L96.4444 10.1481L101.63 17.1851L98.2963 24.2221L82.3704 22.3703L68.2963 24.2221L62 36.8147L87.1852 31.2592L91.2592 43.8518L66.4444 56.4444L49.4074 69.4073L33.1111 74.9629H26.4444L17.9259 84.9629L26.4444 99.0369L31.2592 104.963L29.037 121.259L36.0741 125.333C38.7901 123.111 44.8148 118.741 47.1852 119.037C49.5555 119.333 58.0494 126.074 62 129.407L76.0741 142.741L74.2222 156.815L106.444 155.333L113.111 165.333L106.444 184.592V199.037L91.2592 201.259L84.2222 207.555L72.7407 221.63L56.8148 213.852L49.4074 187.926L36.0741 174.222L26.4444 155.333L29.037 137.926L20.8889 110.889L12.3704 104.963L14.2222 79.4073L17.9259 61.6295L29.037 54.5925L36.0741 46.8147L47.1852 31.2592L59.7778 20.8888L78.6667 13.8518Z" fill="#8A8A8A" stroke="#191D1F" stroke-width="2"/>
<path d="M217.185 187.926L205.704 204.963L200.148 195.333L203.481 182.741L209.407 176.074L198.296 157.926L203.481 141.63L198.296 137.926L178.667 146.444L159.037 133.852L156.074 119.037L153.852 106.815L159.037 88.2962L165.704 77.9258L184.963 71.2591L196.074 74.2221L212.37 83.4814L219.037 74.2221L217.185 66.8147H205.704L183.111 53.8517L171.63 66.8147L160.889 69.4073L159.037 58.2962L162.741 51.9999V46.074L175.333 40.8888L169.407 35.3332L153.852 25.7036L159.037 16.8147H175.333L188.296 25.7036H196.074L203.481 31.2591L217.185 51.9999L224.593 58.2962L235.704 74.2221L239.037 85.3332V112V133.852L240.889 146.444L235.704 162.37L229.037 176.074L217.185 187.926Z" fill="#8A8A8A" stroke="#191D1F" stroke-width="2"/>
<defs>
<linearGradient id="paint0_linear_17_1630" x1="121.444" y1="2" x2="121.444" y2="242" gradientUnits="userSpaceOnUse">
<stop stop-color="#F5F5F5"/>
<stop offset="1" stop-color="#B8B8B8"/>
</linearGradient>
</defs>
</svg>
